<svg width="21" height="21" viewBox="0 0 21 21" fill="none" xmlns="http://www.w3.org/2000/svg">
<path d="M9.51864 0.337891C11.9515 0.337891 13.9371 2.26845 14.0486 4.69184L14.0535 4.90692V5.86811C14.0535 6.29484 13.7102 6.64077 13.2866 6.64077C12.8984 6.64077 12.5775 6.35009 12.5267 5.97296L12.5197 5.86811V4.90692C12.5197 3.29678 11.2702 1.98033 9.69496 1.88835L9.51864 1.88322L4.53385 1.88322C2.93662 1.88322 1.63016 3.14228 1.53887 4.72928L1.53378 4.90692L1.53378 16.3733C1.53378 17.9833 2.7832 19.2998 4.35763 19.3918L4.53385 19.397H9.52886C11.1213 19.397 12.4237 18.1426 12.5147 16.5616L12.5197 16.3846V15.4131C12.5197 14.9864 12.8631 14.6404 13.2866 14.6404C13.6749 14.6404 13.9957 14.9311 14.0465 15.3082L14.0535 15.4131V16.3846C14.0535 18.8275 12.1447 20.8218 9.74804 20.937L9.52886 20.9423H4.53385C2.10184 20.9423 0.116404 19.0115 0.00493588 16.5883L0 16.3733L0 4.90692C0 2.45597 1.91595 0.455194 4.32046 0.342865L4.53385 0.337891L9.51864 0.337891ZM17.6938 7.0146L17.7799 7.08922L20.7739 10.0923C20.8008 10.1193 20.8245 10.1467 20.8462 10.1757L20.7739 10.0923C20.8051 10.1236 20.8331 10.157 20.8579 10.192C20.8753 10.2165 20.8915 10.2423 20.9061 10.2691C20.9087 10.2744 20.9114 10.2795 20.9141 10.2846C20.927 10.3093 20.9385 10.3349 20.9486 10.3613C20.9527 10.3728 20.9569 10.3844 20.9607 10.3962C20.9682 10.4178 20.9745 10.4401 20.9797 10.4628C20.9822 10.4749 20.9847 10.487 20.9869 10.499C20.9911 10.5201 20.9942 10.5418 20.9963 10.5638C20.9975 10.5791 20.9985 10.5943 20.9991 10.6094C20.9998 10.6196 21 10.6298 21 10.64L20.9991 10.6692C20.9986 10.685 20.9975 10.7009 20.9959 10.7167L21 10.64C21 10.6882 20.9956 10.7355 20.9872 10.7813C20.9847 10.7927 20.9822 10.8048 20.9794 10.8168C20.9743 10.8407 20.9677 10.8638 20.9601 10.8865C20.9562 10.897 20.9524 10.9077 20.9484 10.9183C20.9389 10.9439 20.9278 10.9687 20.9155 10.9928C20.9125 10.9983 20.9093 11.0044 20.906 11.0104C20.8708 11.0757 20.8267 11.1346 20.7754 11.1863L17.78 14.1915C17.4799 14.4926 16.9944 14.4916 16.6955 14.1892C16.4238 13.9144 16.3999 13.4851 16.6233 13.183L16.6977 13.0965L18.3737 11.4117L7.92095 11.4127C7.49741 11.4127 7.15406 11.0667 7.15406 10.64C7.15406 10.2488 7.44257 9.92554 7.81689 9.87437L7.92095 9.86732L18.3757 9.86639L16.6978 8.18436C16.4249 7.91066 16.3992 7.48146 16.6213 7.17848L16.6954 7.09165C16.967 6.81673 17.393 6.79084 17.6938 7.0146Z" fill="#FFFFFF"/>
</svg>
